<?xml version="1.0" standalone="no"?>
<!DOCTYPE svg PUBLIC "-//W3C//DTD SVG 20010904//EN"
 "http://www.w3.org/TR/2001/REC-SVG-20010904/DTD/svg10.dtd">
<svg version="1.0" xmlns="http://www.w3.org/2000/svg"
 width="59.000000pt" height="56.000000pt" viewBox="0 0 59.000000 56.000000"
 preserveAspectRatio="xMidYMid meet">

<g transform="translate(0.000000,56.000000) scale(0.100000,-0.100000)"
fill="#000000" stroke="none">
<path d="M0 280 l0 -280 295 0 295 0 0 280 0 280 -295 0 -295 0 0 -280z m242
38 c3 -61 3 -62 14 -29 12 43 30 50 38 16 10 -39 26 -20 26 31 0 24 5 44 10
44 6 0 10 -19 10 -42 0 -109 -25 -151 -50 -85 l-13 32 -10 -32 c-6 -22 -16
-33 -28 -33 -16 0 -19 8 -19 58 0 31 -3 67 -6 80 -5 16 -2 22 9 22 13 0 17
-14 19 -62z"/>
</g>
</svg>
