
<svg id="svg" version="1.1" xmlns="http://www.w3.org/2000/svg" xmlns:xlink="http://www.w3.org/1999/xlink" width="400" height="400" viewBox="0, 0, 400,400"><g id="svgg"><path id="path0" d="M33.470 155.332 C 32.703 156.099,33.192 243.760,33.972 245.289 C 34.957 247.218,34.570 246.962,49.609 255.674 C 56.592 259.720,65.645 264.984,69.727 267.373 L 77.148 271.717 77.344 299.628 C 77.533 326.665,77.564 327.580,78.320 328.832 C 79.164 330.227,81.688 331.889,106.445 347.346 C 114.180 352.174,128.857 361.364,139.063 367.766 C 163.829 383.304,163.570 383.149,165.184 383.451 C 166.073 383.618,167.179 383.505,168.182 383.144 C 169.603 382.633,182.678 374.778,204.590 361.271 C 205.933 360.443,208.218 359.036,209.668 358.145 C 217.099 353.577,217.599 352.947,217.283 348.553 L 217.093 345.919 210.792 339.324 L 204.492 332.730 204.385 339.207 L 204.278 345.684 200.088 348.172 C 195.973 350.617,191.895 353.102,170.557 366.171 L 166.309 368.772 154.151 361.188 C 147.464 357.017,140.366 352.588,138.379 351.346 C 136.391 350.105,134.809 349.048,134.863 348.997 C 135.049 348.823,165.043 330.737,166.501 329.921 C 168.255 328.938,168.274 328.763,166.875 326.541 C 166.273 325.586,164.856 323.182,163.725 321.199 C 162.594 319.216,161.546 317.517,161.395 317.424 C 161.245 317.331,158.927 318.585,156.245 320.210 C 153.562 321.835,144.723 327.170,136.601 332.065 L 121.835 340.965 111.211 334.298 C 105.367 330.630,98.345 326.228,95.605 324.515 L 90.625 321.400 90.641 295.563 L 90.656 269.727 101.676 263.163 C 115.608 254.864,122.229 250.786,123.312 249.838 L 124.164 249.092 119.855 244.495 C 116.195 240.589,113.772 238.425,114.651 239.848 C 114.782 240.061,114.704 240.256,114.476 240.283 C 114.249 240.310,113.931 240.357,113.770 240.388 C 113.380 240.463,108.065 243.598,94.036 252.027 L 82.409 259.014 78.411 256.699 C 76.213 255.426,72.305 253.158,69.727 251.659 C 67.148 250.159,60.862 246.507,55.758 243.543 L 46.476 238.154 46.578 220.967 L 46.680 203.779 51.758 200.686 C 54.551 198.984,58.898 196.332,61.418 194.792 C 63.938 193.252,66.443 191.763,66.984 191.483 C 68.362 190.770,68.471 190.944,63.284 185.543 C 59.645 181.752,58.519 180.789,58.238 181.223 C 58.038 181.530,57.615 181.819,57.297 181.866 C 56.979 181.912,55.427 182.728,53.848 183.679 C 52.269 184.629,49.966 185.978,48.730 186.677 L 46.484 187.948 46.484 177.349 C 46.484 171.092,46.339 166.841,46.129 166.970 C 45.934 167.091,43.151 164.464,39.944 161.134 C 34.013 154.975,33.915 154.887,33.470 155.332 M143.809 270.974 C 143.592 271.362,143.339 271.592,143.248 271.484 C 143.089 271.298,135.811 275.561,124.023 282.745 C 121.016 284.578,118.491 286.125,118.413 286.182 C 118.225 286.320,124.989 297.656,125.259 297.656 C 125.508 297.656,130.061 294.967,136.523 291.003 C 139.102 289.421,143.530 286.712,146.364 284.982 C 149.199 283.251,151.952 281.455,152.483 280.989 C 153.014 280.523,153.552 280.244,153.677 280.370 C 153.803 280.496,153.906 280.461,153.906 280.291 C 153.906 279.965,145.003 270.592,144.499 270.388 C 144.337 270.322,144.026 270.586,143.809 270.974 " stroke="none" fill="#8fd0fb" fill-rule="evenodd"></path><path id="path1" d="M283.641 38.722 C 255.325 43.425,251.693 84.104,278.709 93.957 L 281.641 95.027 281.699 103.275 C 281.732 107.812,281.863 110.751,281.992 109.807 L 282.227 108.091 288.355 114.522 C 294.371 120.836,294.485 120.989,294.632 122.879 C 294.714 123.938,294.813 118.095,294.851 109.895 L 294.922 94.986 297.381 94.167 C 306.145 91.251,313.790 82.691,315.791 73.556 C 320.177 53.524,303.475 35.427,283.641 38.722 M294.633 53.440 C 308.857 60.443,304.078 81.836,288.289 81.836 C 271.229 81.836,267.796 57.817,284.096 52.497 C 286.972 51.558,291.663 51.978,294.633 53.440 M352.084 148.065 C 343.896 148.903,334.491 154.842,331.390 161.133 L 330.812 162.305 331.569 161.363 L 332.325 160.421 337.006 165.258 L 341.688 170.094 342.306 168.899 C 343.345 166.890,347.414 163.432,349.889 162.456 C 363.753 156.987,376.055 173.826,366.932 185.786 C 365.747 187.340,362.052 190.234,361.253 190.234 C 360.979 190.234,362.939 192.424,365.609 195.101 L 370.463 199.967 369.704 200.825 L 368.945 201.683 370.020 200.992 C 370.610 200.612,371.094 200.116,371.094 199.890 C 371.094 199.664,371.200 199.586,371.331 199.716 C 371.895 200.281,377.525 194.559,379.240 191.677 C 391.545 171.001,375.756 145.644,352.084 148.065 " stroke="none" fill="#6057fc" fill-rule="evenodd"></path><path id="path2" d="M77.409 107.422 L 77.343 126.758 75.293 127.895 C 73.341 128.978,71.535 130.045,57.422 138.459 C 54.092 140.444,48.291 143.873,44.531 146.078 C 35.078 151.623,34.981 151.692,34.040 153.496 C 33.097 155.306,33.020 155.628,33.620 155.257 C 33.851 155.114,36.651 157.714,39.906 161.094 C 46.484 167.927,46.484 167.927,46.484 163.687 L 46.484 160.623 54.395 155.955 C 58.745 153.387,64.722 149.855,67.676 148.104 C 81.701 139.795,83.657 138.673,84.098 138.687 C 84.358 138.696,88.656 141.377,93.649 144.644 C 98.642 147.912,104.354 151.630,106.344 152.906 C 108.333 154.182,111.104 155.960,112.500 156.858 C 113.896 157.755,116.050 159.126,117.285 159.904 L 119.531 161.318 119.524 177.827 L 119.517 194.336 115.325 197.069 C 101.715 205.942,92.969 211.806,92.969 212.058 C 92.969 212.519,97.310 219.323,97.697 219.466 C 97.889 219.538,98.047 219.760,98.047 219.960 C 98.047 220.493,99.752 223.036,100.113 223.042 C 100.421 223.047,101.975 222.045,117.342 211.939 L 125.505 206.570 127.694 208.094 C 128.898 208.932,134.126 212.640,139.312 216.332 C 144.498 220.025,148.837 223.047,148.954 223.047 C 149.125 223.047,155.222 214.474,156.353 212.643 C 156.714 212.059,154.213 210.177,137.207 198.238 L 132.813 195.153 132.813 178.074 L 132.813 160.994 133.769 160.282 C 134.295 159.891,135.947 158.790,137.440 157.837 L 140.156 156.103 135.461 151.129 C 132.559 148.053,130.562 146.232,130.229 146.360 C 129.934 146.473,129.777 146.704,129.881 146.872 C 129.985 147.040,129.090 147.642,127.893 148.209 L 125.716 149.239 119.401 145.231 C 115.928 143.026,110.673 139.638,107.723 137.701 C 104.773 135.764,100.145 132.773,97.437 131.055 C 94.730 129.336,92.089 127.609,91.570 127.218 L 90.625 126.506 90.625 116.427 C 90.625 103.272,91.241 105.028,83.954 97.417 C 78.607 91.833,77.758 90.774,77.627 89.527 C 77.543 88.734,77.445 96.787,77.409 107.422 M69.531 174.225 C 64.268 177.445,59.653 180.187,59.277 180.319 C 58.429 180.618,57.847 179.866,63.430 185.688 C 68.568 191.047,68.523 191.023,70.483 189.393 C 70.712 189.203,74.063 187.183,77.930 184.905 C 81.797 182.626,85.198 180.541,85.488 180.270 C 85.918 179.868,79.798 168.315,79.181 168.366 C 79.137 168.369,74.795 171.006,69.531 174.225 M204.263 227.712 L 204.102 234.135 199.805 236.714 C 193.331 240.600,175.738 251.262,167.578 256.243 C 163.604 258.670,157.539 262.358,154.102 264.439 C 146.328 269.145,144.933 270.049,144.927 270.381 C 144.917 270.908,154.289 280.407,154.493 280.078 C 154.608 279.891,155.622 279.232,156.746 278.614 C 157.870 277.995,162.041 275.497,166.016 273.063 C 169.990 270.629,176.934 266.403,181.445 263.672 C 193.635 256.294,202.051 251.148,202.919 250.540 C 203.343 250.243,203.826 250.000,203.993 250.000 C 204.160 250.000,204.302 268.589,204.309 291.309 L 204.320 332.617 210.725 339.258 C 216.827 345.585,217.137 345.981,217.283 347.656 C 217.368 348.623,217.469 331.968,217.508 310.645 L 217.578 271.875 233.496 271.848 C 242.251 271.832,249.701 271.701,250.051 271.555 C 250.547 271.348,249.329 269.870,244.554 264.885 L 238.420 258.482 227.999 258.288 L 217.578 258.094 217.576 251.019 C 217.575 247.129,217.459 242.204,217.318 240.075 L 217.062 236.205 210.896 229.780 C 206.789 225.499,204.680 223.009,204.578 222.321 C 204.493 221.754,204.352 224.179,204.263 227.712 M116.925 238.202 C 113.973 240.137,112.830 241.068,114.426 240.236 C 115.719 239.561,124.647 248.649,123.535 249.508 C 123.191 249.774,122.996 250.080,123.104 250.187 C 123.211 250.295,123.663 250.043,124.108 249.629 C 124.553 249.214,124.982 248.940,125.062 249.020 C 125.142 249.100,125.627 248.849,126.140 248.461 L 127.073 247.758 124.403 243.117 C 121.377 237.858,120.376 236.320,119.993 236.346 C 119.846 236.356,118.466 237.191,116.925 238.202 M262.346 284.602 C 262.216 284.942,262.109 287.477,262.109 290.235 L 262.109 295.250 260.059 295.921 C 236.752 303.551,233.718 336.271,255.210 348.212 C 270.751 356.848,290.826 348.666,295.873 331.641 C 296.753 328.672,297.385 321.875,296.781 321.875 C 296.596 321.875,296.516 321.172,296.602 320.313 C 296.688 319.453,296.629 318.750,296.471 318.750 C 296.314 318.750,288.682 310.928,279.512 301.367 C 270.342 291.807,262.781 283.984,262.711 283.984 C 262.641 283.984,262.477 284.262,262.346 284.602 M275.282 309.562 C 285.739 314.337,286.384 330.242,276.359 336.117 C 266.890 341.666,254.786 335.241,253.999 324.248 C 253.182 312.836,264.838 304.794,275.282 309.562 " stroke="none" fill="#5faafc" fill-rule="evenodd"></path><path id="path3" d="M138.113 32.893 C 137.776 33.374,137.500 33.645,137.500 33.495 C 137.500 33.113,137.132 33.336,108.789 50.865 C 103.418 54.187,94.805 59.502,89.648 62.676 C 76.783 70.595,77.347 69.787,77.349 80.273 C 77.351 91.336,76.819 89.966,84.040 97.507 C 87.576 101.200,90.273 104.338,90.325 104.820 C 90.374 105.284,90.506 99.431,90.617 91.812 L 90.820 77.961 104.883 69.230 L 118.945 60.500 119.046 81.031 L 119.148 101.563 125.785 101.563 L 132.422 101.563 132.422 76.816 L 132.422 52.070 137.736 48.789 C 140.659 46.984,143.449 45.244,143.935 44.922 C 144.422 44.600,145.984 43.663,147.407 42.839 C 148.829 42.016,150.108 41.137,150.249 40.886 C 150.416 40.589,150.322 40.600,149.979 40.918 C 148.943 41.880,148.112 41.344,143.795 36.926 C 138.581 31.590,138.878 31.800,138.113 32.893 M161.699 107.715 L 161.679 126.758 147.011 135.938 C 138.944 140.986,132.023 145.390,131.632 145.723 C 130.960 146.294,131.185 146.609,135.603 151.282 L 140.286 156.235 141.334 155.499 C 141.911 155.095,149.063 150.591,157.227 145.491 C 173.706 135.196,173.230 135.531,174.260 133.512 C 174.960 132.141,175.000 130.885,175.000 110.367 L 175.000 88.672 168.359 88.672 L 161.719 88.672 161.699 107.715 M204.301 160.645 C 204.304 193.569,204.413 221.161,204.545 221.959 C 204.745 223.165,205.829 224.498,210.968 229.854 L 217.151 236.299 217.288 238.950 C 217.363 240.408,217.460 238.657,217.502 235.059 L 217.578 228.516 255.566 228.519 L 293.555 228.522 299.023 235.578 C 302.031 239.460,304.710 242.939,304.977 243.311 C 305.383 243.877,305.240 244.432,304.106 246.706 C 297.330 260.290,302.799 278.094,315.820 284.840 C 332.800 293.636,353.099 284.184,356.836 265.740 C 358.031 259.841,358.968 261.296,343.822 245.514 C 336.478 237.862,330.469 231.442,330.469 231.248 C 330.469 230.194,320.603 232.058,317.287 233.739 L 315.381 234.704 314.397 233.466 C 313.856 232.784,310.463 228.403,306.857 223.730 L 300.302 215.234 258.940 215.234 L 217.578 215.234 217.578 199.219 L 217.578 183.203 250.819 183.203 L 284.060 183.203 277.801 176.660 L 271.543 170.117 276.494 169.904 C 279.217 169.787,267.075 169.655,249.512 169.611 L 217.578 169.531 217.578 154.688 L 217.578 139.844 229.918 139.844 L 242.257 139.844 241.194 138.574 C 240.610 137.876,237.862 134.965,235.089 132.105 L 230.047 126.906 223.813 126.674 L 217.578 126.442 217.578 120.155 L 217.577 113.867 211.295 107.324 C 207.840 103.726,204.852 100.781,204.655 100.781 C 204.439 100.781,204.299 124.586,204.301 160.645 M128.688 147.449 C 128.271 147.764,128.105 148.022,128.320 148.022 C 128.535 148.022,129.052 147.764,129.469 147.449 C 129.886 147.133,130.052 146.875,129.837 146.875 C 129.622 146.875,129.105 147.133,128.688 147.449 M335.285 245.849 C 345.322 250.760,347.287 263.654,339.119 271.009 C 330.151 279.084,315.317 272.868,314.536 260.707 C 313.813 249.436,325.505 241.064,335.285 245.849 M236.184 258.491 L 238.578 258.629 244.685 265.027 C 249.364 269.929,250.631 271.467,250.103 271.605 C 249.724 271.703,252.271 271.805,255.762 271.830 L 262.109 271.875 262.115 278.418 C 262.119 282.118,262.264 284.735,262.450 284.442 C 262.687 284.068,267.458 288.800,279.482 301.336 C 296.340 318.911,297.082 319.617,296.652 317.676 C 294.358 307.295,286.973 298.883,277.552 295.920 L 275.391 295.240 275.391 279.241 C 275.391 256.341,277.489 258.172,251.367 258.281 C 241.699 258.321,234.867 258.416,236.184 258.491 " stroke="none" fill="#467ffc" fill-rule="evenodd"></path><path id="path4" d="M164.063 16.941 C 163.311 17.216,158.125 20.299,152.539 23.791 C 146.953 27.283,142.031 30.346,141.602 30.598 C 141.172 30.849,140.732 31.155,140.625 31.278 C 140.518 31.402,140.106 31.622,139.711 31.768 C 139.113 31.989,139.764 32.820,143.588 36.720 C 148.081 41.301,148.967 41.892,149.922 40.938 C 150.180 40.680,150.391 40.583,150.391 40.723 C 150.391 40.863,153.927 38.789,158.249 36.114 C 162.571 33.439,166.158 31.250,166.220 31.250 C 166.313 31.250,175.332 36.847,202.636 53.849 L 204.295 54.883 204.309 77.539 L 204.323 100.195 210.951 107.013 L 217.578 113.832 217.577 81.427 C 217.575 42.849,218.528 47.940,210.352 42.809 C 208.203 41.461,204.336 39.032,201.758 37.412 C 166.522 15.265,167.375 15.728,164.063 16.941 M281.900 110.528 C 281.757 111.890,281.641 116.056,281.641 119.784 L 281.641 126.563 254.004 126.635 C 238.804 126.675,227.246 126.777,228.320 126.862 L 230.273 127.017 236.328 133.414 L 242.383 139.811 266.126 139.827 C 292.997 139.846,291.767 139.978,293.745 136.860 C 295.021 134.846,295.292 131.055,294.677 123.783 L 294.432 120.886 288.295 114.468 L 282.159 108.050 281.900 110.528 M331.270 161.629 C 330.744 162.215,329.746 164.189,329.052 166.016 L 327.790 169.336 299.846 169.551 C 284.476 169.669,271.820 169.847,271.722 169.945 C 271.623 170.043,274.386 173.073,277.861 176.678 L 284.180 183.233 306.001 183.316 L 327.823 183.398 328.495 185.547 C 331.264 194.394,338.932 201.676,348.141 204.200 C 353.989 205.804,365.434 204.488,368.005 201.917 C 368.379 201.543,368.759 201.311,368.850 201.402 C 368.941 201.493,369.341 201.207,369.739 200.767 C 370.455 199.976,370.411 199.915,365.804 195.296 C 363.242 192.727,361.022 190.625,360.871 190.625 C 360.721 190.625,360.103 190.826,359.498 191.071 C 352.849 193.766,343.295 188.453,340.959 180.761 C 340.146 178.085,340.132 177.503,340.752 171.978 C 340.805 171.497,341.058 170.896,341.312 170.641 C 341.668 170.285,340.726 169.095,337.209 165.460 C 331.835 159.906,332.456 160.307,331.270 161.629 M330.469 231.152 C 330.469 231.530,356.888 259.375,357.247 259.375 C 358.337 259.375,356.421 250.723,354.424 246.621 C 350.463 238.488,338.465 230.178,332.426 231.386 C 331.842 231.503,331.163 231.397,330.916 231.151 C 330.580 230.814,330.469 230.815,330.469 231.152 " stroke="none" fill="#5567fc" fill-rule="evenodd"></path></g></svg>